<svg width="22" height="20" viewBox="0 0 22 20" fill="none" xmlns="http://www.w3.org/2000/svg">
<path fill-rule="evenodd" clip-rule="evenodd" d="M4.85009 0.815291C0.970672 1.99738 -0.759678 6.00569 0.540954 9.82952C1.20096 11.6301 2.27434 13.2485 3.68458 14.5762C5.6192 16.3545 7.74458 17.9194 10.0293 19.2491L10.2888 19.3961C10.5373 19.5369 10.8481 19.5344 11.0941 19.3897L11.3363 19.2473C13.6179 17.9194 15.7433 16.3545 17.6712 14.5824C19.0881 13.2485 20.1615 11.6301 20.816 9.84515C22.1213 6.00801 20.3838 1.9978 16.5032 0.81535L16.2225 0.736231C14.4433 0.273087 12.5526 0.501301 10.9587 1.35535L10.6754 1.51429L10.3971 1.35623C8.71602 0.45344 6.70685 0.250031 4.85009 0.815291ZM10.0199 2.85427L10.2278 2.99538C10.5018 3.18111 10.8715 3.17742 11.1413 2.98625C12.5466 1.99056 14.3653 1.70082 16.0314 2.20669C19.0381 3.12284 20.4064 6.28096 19.3516 9.38199C18.7795 10.9417 17.8325 12.3696 16.5888 13.5405L16.0309 14.0421C14.5278 15.3642 12.9022 16.561 11.1763 17.6156L10.682 17.9098L10.8329 17.9998C8.6525 16.7308 6.6167 15.2319 4.76983 13.5343C3.53279 12.3696 2.58577 10.9417 2.00813 9.36635C0.957875 6.27801 2.32024 3.12212 5.3253 2.20645C6.91208 1.72338 8.64201 1.96289 10.0199 2.85427ZM14.7705 4.48373C14.364 4.36092 13.9291 4.57303 13.7992 4.95748C13.6694 5.34194 13.8937 5.75316 14.3002 5.87597C15.0993 6.11734 15.669 6.79803 15.7403 7.60095C15.7761 8.00312 16.1498 8.30174 16.5751 8.26794C17.0004 8.23413 17.3162 7.88069 17.2804 7.47852C17.1569 6.08858 16.1668 4.9055 14.7705 4.48373Z" fill="#333333"/>
</svg>
