<svg width="14" height="11" viewBox="0 0 14 11" fill="none" xmlns="http://www.w3.org/2000/svg">
<path fill-rule="evenodd" clip-rule="evenodd" d="M7 7.99992C7.13261 7.99992 7.25979 7.94724 7.35355 7.85347C7.44732 7.7597 7.5 7.63253 7.5 7.49992V1.70692L9.646 3.85392C9.69249 3.90041 9.74768 3.93728 9.80842 3.96244C9.86916 3.9876 9.93426 4.00055 10 4.00055C10.0657 4.00055 10.1308 3.9876 10.1916 3.96244C10.2523 3.93728 10.3075 3.90041 10.354 3.85392C10.4005 3.80743 10.4374 3.75224 10.4625 3.6915C10.4877 3.63076 10.5006 3.56566 10.5006 3.49992C10.5006 3.43417 10.4877 3.36907 10.4625 3.30833C10.4374 3.24759 10.4005 3.19241 10.354 3.14592L7.354 0.145917C7.30755 0.0993539 7.25238 0.0624112 7.19163 0.0372047C7.13089 0.0119983 7.06577 -0.000976562 7 -0.000976562C6.93423 -0.000976562 6.86911 0.0119983 6.80837 0.0372047C6.74762 0.0624112 6.69245 0.0993539 6.646 0.145917L3.646 3.14592C3.55211 3.2398 3.49937 3.36714 3.49937 3.49992C3.49937 3.63269 3.55211 3.76003 3.646 3.85392C3.73989 3.9478 3.86722 4.00055 4 4.00055C4.13278 4.00055 4.26011 3.9478 4.354 3.85392L6.5 1.70692V7.49992C6.5 7.63253 6.55268 7.7597 6.64645 7.85347C6.74021 7.94724 6.86739 7.99992 7 7.99992ZM0 10.4999C0 10.3673 0.0526784 10.2401 0.146447 10.1464C0.240215 10.0526 0.367392 9.99992 0.5 9.99992H13.5C13.6326 9.99992 13.7598 10.0526 13.8536 10.1464C13.9473 10.2401 14 10.3673 14 10.4999C14 10.6325 13.9473 10.7597 13.8536 10.8535C13.7598 10.9472 13.6326 10.9999 13.5 10.9999H0.5C0.367392 10.9999 0.240215 10.9472 0.146447 10.8535C0.0526784 10.7597 0 10.6325 0 10.4999Z" fill="black"/>
</svg>
