<svg width="14" height="11" viewBox="0 0 14 11" fill="none" xmlns="http://www.w3.org/2000/svg">
<path fill-rule="evenodd" clip-rule="evenodd" d="M0 0.5C0 0.367392 0.0526784 0.240215 0.146447 0.146447C0.240215 0.0526785 0.367392 0 0.5 0H13.5C13.6326 0 13.7598 0.0526785 13.8536 0.146447C13.9473 0.240215 14 0.367392 14 0.5C14 0.632608 13.9473 0.759785 13.8536 0.853553C13.7598 0.947321 13.6326 1 13.5 1H0.5C0.367392 1 0.240215 0.947321 0.146447 0.853553C0.0526784 0.759785 0 0.632608 0 0.5ZM7 3C7.13261 3 7.25979 3.05268 7.35355 3.14645C7.44732 3.24021 7.5 3.36739 7.5 3.5V9.293L9.646 7.146C9.73989 7.05211 9.86722 6.99937 10 6.99937C10.1328 6.99937 10.2601 7.05211 10.354 7.146C10.4479 7.23989 10.5006 7.36722 10.5006 7.5C10.5006 7.63278 10.4479 7.76011 10.354 7.854L7.354 10.854C7.30755 10.9006 7.25238 10.9375 7.19163 10.9627C7.13089 10.9879 7.06577 11.0009 7 11.0009C6.93423 11.0009 6.86911 10.9879 6.80837 10.9627C6.74762 10.9375 6.69245 10.9006 6.646 10.854L3.646 7.854C3.55211 7.76011 3.49937 7.63278 3.49937 7.5C3.49937 7.36722 3.55211 7.23989 3.646 7.146C3.73989 7.05211 3.86722 6.99937 4 6.99937C4.13278 6.99937 4.26011 7.05211 4.354 7.146L6.5 9.293V3.5C6.5 3.36739 6.55268 3.24021 6.64645 3.14645C6.74021 3.05268 6.86739 3 7 3Z" fill="black"/>
</svg>
